<mxfile host="app.diagrams.net" agent="Mozilla/5.0 (Windows NT 10.0; Win64; x64) AppleWebKit/537.36 (KHTML, like Gecko) Chrome/128.0.0.0 Safari/537.36 Edg/128.0.0.0" version="24.7.12">
  <diagram name="第 1 页" id="sH8tuLjRaFecXyt1ff0X">
    <mxGraphModel dx="1426" dy="757" grid="1" gridSize="10" guides="1" tooltips="1" connect="1" arrows="1" fold="1" page="1" pageScale="1" pageWidth="827" pageHeight="1169" math="0" shadow="0">
      <root>
        <mxCell id="0" />
        <mxCell id="1" parent="0" />
        <mxCell id="ZgViT5JzKonbBfIOWeEI-18" style="edgeStyle=orthogonalEdgeStyle;rounded=0;orthogonalLoop=1;jettySize=auto;html=1;entryX=0;entryY=0.5;entryDx=0;entryDy=0;" edge="1" parent="1" source="ZgViT5JzKonbBfIOWeEI-1" target="ZgViT5JzKonbBfIOWeEI-13">
          <mxGeometry relative="1" as="geometry" />
        </mxCell>
        <mxCell id="ZgViT5JzKonbBfIOWeEI-1" value="1h消息队列" style="rounded=1;whiteSpace=wrap;html=1;" vertex="1" parent="1">
          <mxGeometry x="440" y="420" width="120" height="60" as="geometry" />
        </mxCell>
        <mxCell id="ZgViT5JzKonbBfIOWeEI-17" style="edgeStyle=orthogonalEdgeStyle;rounded=0;orthogonalLoop=1;jettySize=auto;html=1;entryX=0;entryY=0.5;entryDx=0;entryDy=0;" edge="1" parent="1" source="ZgViT5JzKonbBfIOWeEI-2" target="ZgViT5JzKonbBfIOWeEI-13">
          <mxGeometry relative="1" as="geometry" />
        </mxCell>
        <mxCell id="ZgViT5JzKonbBfIOWeEI-2" value="30分钟消息队列" style="rounded=1;whiteSpace=wrap;html=1;" vertex="1" parent="1">
          <mxGeometry x="440" y="330" width="120" height="60" as="geometry" />
        </mxCell>
        <mxCell id="ZgViT5JzKonbBfIOWeEI-16" style="edgeStyle=orthogonalEdgeStyle;rounded=0;orthogonalLoop=1;jettySize=auto;html=1;entryX=0;entryY=0.5;entryDx=0;entryDy=0;" edge="1" parent="1" source="ZgViT5JzKonbBfIOWeEI-3" target="ZgViT5JzKonbBfIOWeEI-13">
          <mxGeometry relative="1" as="geometry" />
        </mxCell>
        <mxCell id="ZgViT5JzKonbBfIOWeEI-3" value="15分钟消息队列" style="rounded=1;whiteSpace=wrap;html=1;" vertex="1" parent="1">
          <mxGeometry x="440" y="230" width="120" height="60" as="geometry" />
        </mxCell>
        <mxCell id="ZgViT5JzKonbBfIOWeEI-14" style="edgeStyle=orthogonalEdgeStyle;rounded=0;orthogonalLoop=1;jettySize=auto;html=1;entryX=0;entryY=0.5;entryDx=0;entryDy=0;" edge="1" parent="1" source="ZgViT5JzKonbBfIOWeEI-4" target="ZgViT5JzKonbBfIOWeEI-13">
          <mxGeometry relative="1" as="geometry" />
        </mxCell>
        <mxCell id="ZgViT5JzKonbBfIOWeEI-4" value="5分钟消息队列" style="rounded=1;whiteSpace=wrap;html=1;" vertex="1" parent="1">
          <mxGeometry x="440" y="130" width="120" height="60" as="geometry" />
        </mxCell>
        <mxCell id="ZgViT5JzKonbBfIOWeEI-7" style="edgeStyle=orthogonalEdgeStyle;rounded=0;orthogonalLoop=1;jettySize=auto;html=1;entryX=0;entryY=0.5;entryDx=0;entryDy=0;" edge="1" parent="1" source="ZgViT5JzKonbBfIOWeEI-6" target="ZgViT5JzKonbBfIOWeEI-4">
          <mxGeometry relative="1" as="geometry">
            <mxPoint x="240" y="150" as="targetPoint" />
          </mxGeometry>
        </mxCell>
        <mxCell id="ZgViT5JzKonbBfIOWeEI-9" style="edgeStyle=orthogonalEdgeStyle;rounded=0;orthogonalLoop=1;jettySize=auto;html=1;entryX=0;entryY=0.5;entryDx=0;entryDy=0;" edge="1" parent="1" source="ZgViT5JzKonbBfIOWeEI-6" target="ZgViT5JzKonbBfIOWeEI-2">
          <mxGeometry relative="1" as="geometry" />
        </mxCell>
        <mxCell id="ZgViT5JzKonbBfIOWeEI-10" style="edgeStyle=orthogonalEdgeStyle;rounded=0;orthogonalLoop=1;jettySize=auto;html=1;entryX=0;entryY=0.5;entryDx=0;entryDy=0;" edge="1" parent="1" source="ZgViT5JzKonbBfIOWeEI-6" target="ZgViT5JzKonbBfIOWeEI-1">
          <mxGeometry relative="1" as="geometry" />
        </mxCell>
        <mxCell id="ZgViT5JzKonbBfIOWeEI-6" value="消息重发" style="rounded=1;whiteSpace=wrap;html=1;" vertex="1" parent="1">
          <mxGeometry x="50" y="280" width="110" height="60" as="geometry" />
        </mxCell>
        <mxCell id="ZgViT5JzKonbBfIOWeEI-8" style="edgeStyle=orthogonalEdgeStyle;rounded=0;orthogonalLoop=1;jettySize=auto;html=1;entryX=0.017;entryY=0.4;entryDx=0;entryDy=0;entryPerimeter=0;" edge="1" parent="1" source="ZgViT5JzKonbBfIOWeEI-6" target="ZgViT5JzKonbBfIOWeEI-3">
          <mxGeometry relative="1" as="geometry" />
        </mxCell>
        <mxCell id="ZgViT5JzKonbBfIOWeEI-20" value="根据重发次数分发" style="edgeLabel;html=1;align=center;verticalAlign=middle;resizable=0;points=[];" vertex="1" connectable="0" parent="ZgViT5JzKonbBfIOWeEI-8">
          <mxGeometry x="-0.5622" y="-2" relative="1" as="geometry">
            <mxPoint as="offset" />
          </mxGeometry>
        </mxCell>
        <mxCell id="ZgViT5JzKonbBfIOWeEI-13" value="消息下发" style="rounded=1;whiteSpace=wrap;html=1;" vertex="1" parent="1">
          <mxGeometry x="690" y="280" width="120" height="60" as="geometry" />
        </mxCell>
      </root>
    </mxGraphModel>
  </diagram>
</mxfile>
